<svg xmlns="http://www.w3.org/2000/svg" viewBox="20.000000000000043 155.59028769655447 534.9965190960245 263.81942460689106"> <g transform="rotate(0 138.51632624259668 287.5)"><svg xmlns="http://www.w3.org/2000/svg" xmlns:xlink="http://www.w3.org/1999/xlink" version="1.1" id="qqqq_1" x="90.00000000000004" y="225.59028769655447" viewBox="2039.6102294921875 912.5201416015625 920.7723388671875 1174.9600830078125" xml:space="preserve" height="123.81942460689108" width="97.03265248519327" preserveAspectRatio="xMinYMin" enable-background="new 0 0 5000 3000" style="overflow: visible;"><path d="M2666.34,1607.18c0.7,153.62,5.39,306.84,26.34,459.54c20.95-152.7,25.63-305.92,26.34-459.54   c-1.31-151.79-5.28-309.12-26.34-459.54C2671.62,1298.17,2667.66,1455.3,2666.34,1607.18z" style="fill: #042B2F; fill-opacity: 1;"></path><path d="M2933.13,1388.09c-36.19,215.44-36.48,436.49,0.01,651.91C2969.61,1824.58,2969.32,1603.53,2933.13,1388.09z" style="fill: #042B2F; fill-opacity: 1;"></path><path d="M2057.28,2066.72c7.97-181.61,13.23-371.99,17.33-553.77c48.97-50.15,118.13-121.47,189.32-195.2   c-1,65.78-1.87,126.22-2.45,171.87c-3.11,197.66-5.36,395.33-7.18,593c76.63,2.13,153.35,3.18,229.98,4.51l20.01,0.35l0.4-20.77   c5.78-327.96,6.42-686.04,5-1015.26l-0.22-64.73l-43.71,47.33c-48.65,52.29-118.02,127.6-189.35,205.39   c-1.91-120.51-4.05-246.4-5.64-326.92c-1.64,83.12-3.88,215.09-5.83,339.43c-83.89,91.53-169.09,184.95-225.33,247.11   C2043.76,1685.33,2049.13,1880.38,2057.28,2066.72z M2458.65,1115.18c-0.24,71.49-0.64,190.09-0.64,190.09   c0.35,239.15,1.42,502.28,5.53,741.39c-58.87,1-117.74,1.94-176.61,3.38c-1.76-186.81-3.92-373.62-6.86-560.42   c-0.62-48.93-1.57-114.77-2.66-185.84C2341.84,1237.02,2406.76,1169.49,2458.65,1115.18z" style="fill: #042B2F; fill-opacity: 1;"></path></svg></g> <g transform="rotate(0 312.87653160823163 310.9639292632736)"><svg xmlns="http://www.w3.org/2000/svg" y="305.0789295112289" viewBox="0.8799999952316284 3.299999952316284 202.1599884033203 11.769999504089355" x="211.79653740657147" height="11.769999504089355" width="202.1599884033203" style="overflow: visible;"><g fill="#042B2F" fill-opacity="1" style=""><path d="M5.16 4.88L1.92 4.88L1.92 7.54L4.82 7.54L4.82 8.39L1.92 8.39L1.92 11.13L5.16 11.13L5.16 11.99L0.88 11.99L0.88 4.02L5.16 4.02L5.16 4.88ZM9.79 5.62Q10.93 5.62 11.64 6.31Q12.34 7.00 12.34 8.30L12.34 8.30L12.34 11.99L11.32 11.99L11.32 8.45Q11.32 7.51 10.85 7.02Q10.38 6.52 9.57 6.52L9.57 6.52Q8.75 6.52 8.26 7.03Q7.78 7.55 7.78 8.53L7.78 8.53L7.78 11.99L6.74 11.99L6.74 5.73L7.78 5.73L7.78 6.62Q8.08 6.14 8.62 5.88Q9.15 5.62 9.79 5.62L9.79 5.62ZM13.66 8.84Q13.66 7.88 14.04 7.15Q14.43 6.43 15.11 6.03Q15.79 5.63 16.64 5.63L16.64 5.63Q17.37 5.63 18.00 5.97Q18.62 6.30 18.95 6.85L18.95 6.85L18.95 3.54L20.01 3.54L20.01 11.99L18.95 11.99L18.95 10.81Q18.65 11.37 18.04 11.73Q17.44 12.09 16.63 12.09L16.63 12.09Q15.79 12.09 15.11 11.68Q14.43 11.27 14.04 10.53Q13.66 9.79 13.66 8.84L13.66 8.84ZM18.95 8.85Q18.95 8.14 18.67 7.62Q18.38 7.09 17.90 6.81Q17.41 6.53 16.83 6.53L16.83 6.53Q16.25 6.53 15.77 6.81Q15.29 7.08 15.00 7.60Q14.72 8.13 14.72 8.84L14.72 8.84Q14.72 9.56 15.00 10.09Q15.29 10.62 15.77 10.90Q16.25 11.18 16.83 11.18L16.83 11.18Q17.41 11.18 17.90 10.90Q18.38 10.62 18.67 10.09Q18.95 9.56 18.95 8.85L18.95 8.85ZM26.27 5.73L27.31 5.73L27.31 11.99L26.27 11.99L26.27 11.06Q25.98 11.54 25.45 11.81Q24.92 12.08 24.28 12.08L24.28 12.08Q23.54 12.08 22.96 11.78Q22.38 11.48 22.04 10.87Q21.71 10.27 21.71 9.40L21.71 9.40L21.71 5.73L22.73 5.73L22.73 9.26Q22.73 10.19 23.20 10.68Q23.67 11.18 24.48 11.18L24.48 11.18Q25.31 11.18 25.79 10.66Q26.27 10.15 26.27 9.17L26.27 9.17L26.27 5.73ZM30.11 6.75Q30.38 6.21 30.89 5.91Q31.40 5.62 32.13 5.62L32.13 5.62L32.13 6.69L31.86 6.69Q30.11 6.69 30.11 8.59L30.11 8.59L30.11 11.99L29.07 11.99L29.07 5.73L30.11 5.73L30.11 6.75ZM33.87 4.72Q33.57 4.72 33.36 4.51Q33.16 4.30 33.16 4.01L33.16 4.01Q33.16 3.71 33.36 3.51Q33.57 3.30 33.87 3.30L33.87 3.30Q34.15 3.30 34.35 3.51Q34.55 3.71 34.55 4.01L34.55 4.01Q34.55 4.30 34.35 4.51Q34.15 4.72 33.87 4.72L33.87 4.72ZM33.33 5.73L34.37 5.73L34.37 11.99L33.33 11.99L33.33 5.73ZM39.19 5.62Q40.33 5.62 41.04 6.31Q41.75 7.00 41.75 8.30L41.75 8.30L41.75 11.99L40.72 11.99L40.72 8.45Q40.72 7.51 40.25 7.02Q39.78 6.52 38.97 6.52L38.97 6.52Q38.15 6.52 37.66 7.03Q37.18 7.55 37.18 8.53L37.18 8.53L37.18 11.99L36.14 11.99L36.14 5.73L37.18 5.73L37.18 6.62Q37.49 6.14 38.02 5.88Q38.55 5.62 39.19 5.62L39.19 5.62ZM46.03 5.63Q46.84 5.63 47.45 5.98Q48.06 6.34 48.36 6.87L48.36 6.87L48.36 5.73L49.41 5.73L49.41 12.13Q49.41 12.98 49.04 13.65Q48.68 14.32 48.00 14.70Q47.32 15.07 46.42 15.07L46.42 15.07Q45.18 15.07 44.36 14.49Q43.54 13.91 43.39 12.90L43.39 12.90L44.42 12.90Q44.59 13.47 45.13 13.82Q45.66 14.17 46.42 14.17L46.42 14.17Q47.27 14.17 47.81 13.63Q48.36 13.10 48.36 12.13L48.36 12.13L48.36 10.81Q48.05 11.36 47.44 11.73Q46.84 12.09 46.03 12.09L46.03 12.09Q45.19 12.09 44.51 11.68Q43.84 11.27 43.45 10.53Q43.06 9.79 43.06 8.84L43.06 8.84Q43.06 7.88 43.45 7.15Q43.84 6.43 44.51 6.03Q45.19 5.63 46.03 5.63L46.03 5.63ZM48.36 8.85Q48.36 8.14 48.07 7.62Q47.79 7.09 47.30 6.81Q46.82 6.53 46.23 6.53L46.23 6.53Q45.65 6.53 45.17 6.81Q44.69 7.08 44.41 7.60Q44.12 8.13 44.12 8.84L44.12 8.84Q44.12 9.56 44.41 10.09Q44.69 10.62 45.17 10.90Q45.65 11.18 46.23 11.18L46.23 11.18Q46.82 11.18 47.30 10.90Q47.79 10.62 48.07 10.09Q48.36 9.56 48.36 8.85L48.36 8.85ZM53.83 8.84Q53.83 7.88 54.21 7.15Q54.60 6.43 55.28 6.03Q55.96 5.63 56.81 5.63L56.81 5.63Q57.62 5.63 58.23 5.99Q58.84 6.35 59.12 6.87L59.12 6.87L59.12 5.73L60.18 5.73L60.18 14.96L59.12 14.96L59.12 10.84Q58.83 11.36 58.21 11.73Q57.59 12.09 56.77 12.09L56.77 12.09Q55.95 12.09 55.28 11.68Q54.60 11.27 54.21 10.53Q53.83 9.79 53.83 8.84L53.83 8.84ZM59.12 8.85Q59.12 8.14 58.84 7.62Q58.55 7.09 58.07 6.81Q57.58 6.53 57.00 6.53L57.00 6.53Q56.42 6.53 55.94 6.81Q55.46 7.08 55.17 7.60Q54.89 8.13 54.89 8.84L54.89 8.84Q54.89 9.56 55.17 10.09Q55.46 10.62 55.94 10.90Q56.42 11.18 57.00 11.18L57.00 11.18Q57.58 11.18 58.07 10.90Q58.55 10.62 58.84 10.09Q59.12 9.56 59.12 8.85L59.12 8.85ZM66.44 5.73L67.48 5.73L67.48 11.99L66.44 11.99L66.44 11.06Q66.15 11.54 65.62 11.81Q65.09 12.08 64.45 12.08L64.45 12.08Q63.72 12.08 63.13 11.78Q62.55 11.48 62.21 10.87Q61.88 10.27 61.88 9.40L61.88 9.40L61.88 5.73L62.90 5.73L62.90 9.26Q62.90 10.19 63.37 10.68Q63.84 11.18 64.65 11.18L64.65 11.18Q65.48 11.18 65.96 10.66Q66.44 10.15 66.44 9.17L66.44 9.17L66.44 5.73ZM68.85 8.84Q68.85 7.88 69.24 7.15Q69.63 6.43 70.31 6.03Q70.99 5.63 71.82 5.63L71.82 5.63Q72.64 5.63 73.25 5.98Q73.85 6.34 74.15 6.87L74.15 6.87L74.15 5.73L75.20 5.73L75.20 11.99L74.15 11.99L74.15 10.82Q73.84 11.37 73.23 11.73Q72.62 12.09 71.81 12.09L71.81 12.09Q70.98 12.09 70.30 11.68Q69.63 11.27 69.24 10.53Q68.85 9.79 68.85 8.84L68.85 8.84ZM74.15 8.85Q74.15 8.14 73.87 7.62Q73.58 7.09 73.10 6.81Q72.61 6.53 72.03 6.53L72.03 6.53Q71.45 6.53 70.97 6.81Q70.49 7.08 70.20 7.60Q69.92 8.13 69.92 8.84L69.92 8.84Q69.92 9.56 70.20 10.09Q70.49 10.62 70.97 10.90Q71.45 11.18 72.03 11.18L72.03 11.18Q72.61 11.18 73.10 10.90Q73.58 10.62 73.87 10.09Q74.15 9.56 74.15 8.85L74.15 8.85ZM76.96 3.54L78.00 3.54L78.00 11.99L76.96 11.99L76.96 3.54ZM80.31 4.72Q80.01 4.72 79.80 4.51Q79.60 4.30 79.60 4.01L79.60 4.01Q79.60 3.71 79.80 3.51Q80.01 3.30 80.31 3.30L80.31 3.30Q80.59 3.30 80.79 3.51Q80.99 3.71 80.99 4.01L80.99 4.01Q80.99 4.30 80.79 4.51Q80.59 4.72 80.31 4.72L80.31 4.72ZM79.77 5.73L80.81 5.73L80.81 11.99L79.77 11.99L79.77 5.73ZM85.48 6.59L83.85 6.59L83.85 10.28Q83.85 10.73 84.04 10.92Q84.23 11.11 84.71 11.11L84.71 11.11L85.48 11.11L85.48 11.99L84.54 11.99Q83.67 11.99 83.24 11.59Q82.81 11.19 82.81 10.28L82.81 10.28L82.81 6.59L82.00 6.59L82.00 5.73L82.81 5.73L82.81 4.16L83.85 4.16L83.85 5.73L85.48 5.73L85.48 6.59ZM91.05 5.73L92.12 5.73L88.36 14.94L87.28 14.94L88.52 11.92L85.99 5.73L87.15 5.73L89.11 10.80L91.05 5.73ZM93.09 10.55L94.24 10.55L92.96 13.62L92.26 13.62L93.09 10.55ZM99.51 6.89Q99.82 6.35 100.43 5.99Q101.04 5.63 101.85 5.63L101.85 5.63Q102.69 5.63 103.37 6.03Q104.05 6.43 104.43 7.15Q104.82 7.88 104.82 8.84L104.82 8.84Q104.82 9.79 104.43 10.53Q104.05 11.27 103.37 11.68Q102.69 12.09 101.85 12.09L101.85 12.09Q101.05 12.09 100.44 11.73Q99.83 11.37 99.51 10.84L99.51 10.84L99.51 14.96L98.47 14.96L98.47 5.73L99.51 5.73L99.51 6.89ZM103.76 8.84Q103.76 8.13 103.47 7.60Q103.19 7.08 102.70 6.81Q102.22 6.53 101.64 6.53L101.64 6.53Q101.06 6.53 100.58 6.81Q100.09 7.09 99.80 7.62Q99.51 8.15 99.51 8.85L99.51 8.85Q99.51 9.56 99.80 10.09Q100.09 10.62 100.58 10.90Q101.06 11.18 101.64 11.18L101.64 11.18Q102.22 11.18 102.70 10.90Q103.19 10.62 103.47 10.09Q103.76 9.56 103.76 8.84L103.76 8.84ZM107.23 6.75Q107.50 6.21 108.01 5.91Q108.52 5.62 109.25 5.62L109.25 5.62L109.25 6.69L108.98 6.69Q107.23 6.69 107.23 8.59L107.23 8.59L107.23 11.99L106.19 11.99L106.19 5.73L107.23 5.73L107.23 6.75ZM113.18 12.09Q112.30 12.09 111.59 11.69Q110.87 11.29 110.47 10.56Q110.06 9.82 110.06 8.85L110.06 8.85Q110.06 7.89 110.48 7.15Q110.90 6.42 111.62 6.02Q112.33 5.63 113.23 5.63L113.23 5.63Q114.12 5.63 114.84 6.02Q115.56 6.42 115.97 7.15Q116.39 7.88 116.39 8.85L116.39 8.85Q116.39 9.82 115.96 10.56Q115.53 11.29 114.80 11.69Q114.07 12.09 113.18 12.09L113.18 12.09ZM113.18 11.18Q113.74 11.18 114.23 10.92Q114.72 10.65 115.02 10.13Q115.33 9.60 115.33 8.85L115.33 8.85Q115.33 8.10 115.03 7.57Q114.73 7.05 114.25 6.79Q113.77 6.53 113.21 6.53L113.21 6.53Q112.64 6.53 112.17 6.79Q111.70 7.05 111.41 7.57Q111.12 8.10 111.12 8.85L111.12 8.85Q111.12 9.61 111.40 10.14Q111.68 10.66 112.15 10.92Q112.62 11.18 113.18 11.18L113.18 11.18ZM118.14 5.73L120.09 11.03L122.03 5.73L123.14 5.73L120.68 11.99L119.47 11.99L117.02 5.73L118.14 5.73ZM129.87 8.62Q129.87 8.92 129.84 9.25L129.84 9.25L124.84 9.25Q124.90 10.17 125.47 10.69Q126.05 11.21 126.87 11.21L126.87 11.21Q127.54 11.21 128.00 10.90Q128.45 10.58 128.63 10.06L128.63 10.06L129.75 10.06Q129.50 10.96 128.74 11.53Q127.99 12.09 126.87 12.09L126.87 12.09Q125.98 12.09 125.28 11.69Q124.58 11.29 124.18 10.56Q123.78 9.82 123.78 8.85L123.78 8.85Q123.78 7.88 124.16 7.15Q124.55 6.42 125.26 6.02Q125.96 5.63 126.87 5.63L126.87 5.63Q127.76 5.63 128.45 6.02Q129.13 6.41 129.50 7.09Q129.87 7.76 129.87 8.62L129.87 8.62ZM128.80 8.40Q128.80 7.81 128.54 7.38Q128.28 6.95 127.82 6.73Q127.37 6.51 126.83 6.51L126.83 6.51Q126.04 6.51 125.48 7.01Q124.93 7.51 124.85 8.40L124.85 8.40L128.80 8.40ZM134.29 5.62Q135.43 5.62 136.14 6.31Q136.85 7.00 136.85 8.30L136.85 8.30L136.85 11.99L135.82 11.99L135.82 8.45Q135.82 7.51 135.35 7.02Q134.89 6.52 134.08 6.52L134.08 6.52Q133.25 6.52 132.77 7.03Q132.28 7.55 132.28 8.53L132.28 8.53L132.28 11.99L131.24 11.99L131.24 5.73L132.28 5.73L132.28 6.62Q132.59 6.14 133.12 5.88Q133.65 5.62 134.29 5.62L134.29 5.62ZM147.31 8.62Q147.31 8.92 147.28 9.25L147.28 9.25L142.27 9.25Q142.33 10.17 142.91 10.69Q143.48 11.21 144.31 11.21L144.31 11.21Q144.98 11.21 145.43 10.90Q145.88 10.58 146.07 10.06L146.07 10.06L147.18 10.06Q146.93 10.96 146.18 11.53Q145.43 12.09 144.31 12.09L144.31 12.09Q143.42 12.09 142.71 11.69Q142.01 11.29 141.61 10.56Q141.21 9.82 141.21 8.85L141.21 8.85Q141.21 7.88 141.60 7.15Q141.99 6.42 142.69 6.02Q143.39 5.63 144.31 5.63L144.31 5.63Q145.20 5.63 145.88 6.02Q146.57 6.41 146.94 7.09Q147.31 7.76 147.31 8.62L147.31 8.62ZM146.24 8.40Q146.24 7.81 145.97 7.38Q145.71 6.95 145.26 6.73Q144.81 6.51 144.26 6.51L144.26 6.51Q143.47 6.51 142.92 7.01Q142.37 7.51 142.29 8.40L142.29 8.40L146.24 8.40ZM153.12 11.99L151.95 11.99L150.46 9.66L149.03 11.99L147.95 11.99L149.97 8.88L147.95 5.73L149.13 5.73L150.61 8.05L152.03 5.73L153.11 5.73L151.10 8.83L153.12 11.99ZM155.19 6.89Q155.50 6.35 156.11 5.99Q156.72 5.63 157.53 5.63L157.53 5.63Q158.36 5.63 159.04 6.03Q159.72 6.43 160.11 7.15Q160.50 7.88 160.50 8.84L160.50 8.84Q160.50 9.79 160.11 10.53Q159.72 11.27 159.04 11.68Q158.36 12.09 157.53 12.09L157.53 12.09Q156.73 12.09 156.12 11.73Q155.51 11.37 155.19 10.84L155.19 10.84L155.19 14.96L154.15 14.96L154.15 5.73L155.19 5.73L155.19 6.89ZM159.44 8.84Q159.44 8.13 159.15 7.60Q158.87 7.08 158.38 6.81Q157.89 6.53 157.31 6.53L157.31 6.53Q156.74 6.53 156.26 6.81Q155.77 7.09 155.48 7.62Q155.19 8.15 155.19 8.85L155.19 8.85Q155.19 9.56 155.48 10.09Q155.77 10.62 156.26 10.90Q156.74 11.18 157.31 11.18L157.31 11.18Q157.89 11.18 158.38 10.90Q158.87 10.62 159.15 10.09Q159.44 9.56 159.44 8.84L159.44 8.84ZM167.58 8.62Q167.58 8.92 167.54 9.25L167.54 9.25L162.54 9.25Q162.60 10.17 163.18 10.69Q163.75 11.21 164.57 11.21L164.57 11.21Q165.25 11.21 165.70 10.90Q166.15 10.58 166.33 10.06L166.33 10.06L167.45 10.06Q167.20 10.96 166.45 11.53Q165.69 12.09 164.57 12.09L164.57 12.09Q163.68 12.09 162.98 11.69Q162.28 11.29 161.88 10.56Q161.48 9.82 161.48 8.85L161.48 8.85Q161.48 7.88 161.87 7.15Q162.26 6.42 162.96 6.02Q163.66 5.63 164.57 5.63L164.57 5.63Q165.47 5.63 166.15 6.02Q166.84 6.41 167.21 7.09Q167.58 7.76 167.58 8.62L167.58 8.62ZM166.50 8.40Q166.50 7.81 166.24 7.38Q165.98 6.95 165.53 6.73Q165.08 6.51 164.53 6.51L164.53 6.51Q163.74 6.51 163.19 7.01Q162.63 7.51 162.55 8.40L162.55 8.40L166.50 8.40ZM169.99 6.75Q170.26 6.21 170.77 5.91Q171.28 5.62 172.01 5.62L172.01 5.62L172.01 6.69L171.73 6.69Q169.99 6.69 169.99 8.59L169.99 8.59L169.99 11.99L168.95 11.99L168.95 5.73L169.99 5.73L169.99 6.75ZM173.74 4.72Q173.45 4.72 173.24 4.51Q173.04 4.30 173.04 4.01L173.04 4.01Q173.04 3.71 173.24 3.51Q173.45 3.30 173.74 3.30L173.74 3.30Q174.03 3.30 174.23 3.51Q174.43 3.71 174.43 4.01L174.43 4.01Q174.43 4.30 174.23 4.51Q174.03 4.72 173.74 4.72L173.74 4.72ZM173.21 5.73L174.25 5.73L174.25 11.99L173.21 11.99L173.21 5.73ZM181.73 8.62Q181.73 8.92 181.69 9.25L181.69 9.25L176.69 9.25Q176.75 10.17 177.32 10.69Q177.90 11.21 178.72 11.21L178.72 11.21Q179.40 11.21 179.85 10.90Q180.30 10.58 180.48 10.06L180.48 10.06L181.60 10.06Q181.35 10.96 180.59 11.53Q179.84 12.09 178.72 12.09L178.72 12.09Q177.83 12.09 177.13 11.69Q176.43 11.29 176.03 10.56Q175.63 9.82 175.63 8.85L175.63 8.85Q175.63 7.88 176.02 7.15Q176.40 6.42 177.11 6.02Q177.81 5.63 178.72 5.63L178.72 5.63Q179.61 5.63 180.30 6.02Q180.98 6.41 181.35 7.09Q181.73 7.76 181.73 8.62L181.73 8.62ZM180.65 8.40Q180.65 7.81 180.39 7.38Q180.13 6.95 179.68 6.73Q179.22 6.51 178.68 6.51L178.68 6.51Q177.89 6.51 177.33 7.01Q176.78 7.51 176.70 8.40L176.70 8.40L180.65 8.40ZM186.14 5.62Q187.29 5.62 187.99 6.31Q188.70 7.00 188.70 8.30L188.70 8.30L188.70 11.99L187.67 11.99L187.67 8.45Q187.67 7.51 187.21 7.02Q186.74 6.52 185.93 6.52L185.93 6.52Q185.10 6.52 184.62 7.03Q184.13 7.55 184.13 8.53L184.13 8.53L184.13 11.99L183.10 11.99L183.10 5.73L184.13 5.73L184.13 6.62Q184.44 6.14 184.97 5.88Q185.50 5.62 186.14 5.62L186.14 5.62ZM190.01 8.85Q190.01 7.88 190.40 7.15Q190.79 6.43 191.48 6.03Q192.17 5.63 193.06 5.63L193.06 5.63Q194.22 5.63 194.96 6.19Q195.71 6.75 195.95 7.74L195.95 7.74L194.83 7.74Q194.67 7.17 194.21 6.84Q193.75 6.51 193.06 6.51L193.06 6.51Q192.17 6.51 191.62 7.12Q191.08 7.73 191.08 8.85L191.08 8.85Q191.08 9.98 191.62 10.60Q192.17 11.21 193.06 11.21L193.06 11.21Q193.75 11.21 194.21 10.89Q194.66 10.57 194.83 9.98L194.83 9.98L195.95 9.98Q195.70 10.94 194.95 11.52Q194.19 12.09 193.06 12.09L193.06 12.09Q192.17 12.09 191.48 11.69Q190.79 11.29 190.40 10.56Q190.01 9.83 190.01 8.85L190.01 8.85ZM203.04 8.62Q203.04 8.92 203.01 9.25L203.01 9.25L198.01 9.25Q198.06 10.17 198.64 10.69Q199.22 11.21 200.04 11.21L200.04 11.21Q200.71 11.21 201.17 10.90Q201.62 10.58 201.80 10.06L201.80 10.06L202.92 10.06Q202.67 10.96 201.91 11.53Q201.16 12.09 200.04 12.09L200.04 12.09Q199.15 12.09 198.45 11.69Q197.75 11.29 197.35 10.56Q196.95 9.82 196.95 8.85L196.95 8.85Q196.95 7.88 197.33 7.15Q197.72 6.42 198.42 6.02Q199.13 5.63 200.04 5.63L200.04 5.63Q200.93 5.63 201.62 6.02Q202.30 6.41 202.67 7.09Q203.04 7.76 203.04 8.62L203.04 8.62ZM201.97 8.40Q201.97 7.81 201.71 7.38Q201.44 6.95 200.99 6.73Q200.54 6.51 199.99 6.51L199.99 6.51Q199.21 6.51 198.65 7.01Q198.10 7.51 198.02 8.40L198.02 8.40L201.97 8.40Z" transform="translate(0, 0)"></path></g></svg></g> <g transform="rotate(0 348.39652825129804 276.7196547959153)"><svg xmlns="http://www.w3.org/2000/svg" y="258.14965319374244" viewBox="3.700000047683716 13.739999771118164 273.1999816894531 37.1400032043457" x="211.7965374065715" height="37.1400032043457" width="273.1999816894531" style="overflow: visible;"><g fill="#042B2F" fill-opacity="1" style=""><path d="M30.03 16.91L30.03 50.45L25.66 50.45L8.07 23.78L8.07 50.45L3.70 50.45L3.70 16.91L8.07 16.91L25.66 43.53L25.66 16.91L30.03 16.91ZM65.83 36.28Q65.83 37.53 65.68 38.92L65.68 38.92L44.64 38.92Q44.88 42.81 47.30 45.00Q49.73 47.18 53.19 47.18L53.19 47.18Q56.02 47.18 57.92 45.86Q59.82 44.54 60.59 42.33L60.59 42.33L65.30 42.33Q64.24 46.13 61.07 48.51Q57.90 50.88 53.19 50.88L53.19 50.88Q49.44 50.88 46.49 49.20Q43.53 47.52 41.85 44.42Q40.17 41.32 40.17 37.24L40.17 37.24Q40.17 33.15 41.80 30.08Q43.44 27.00 46.39 25.35Q49.35 23.69 53.19 23.69L53.19 23.69Q56.94 23.69 59.82 25.32Q62.70 26.96 64.27 29.81Q65.83 32.67 65.83 36.28L65.83 36.28ZM61.31 35.36Q61.31 32.87 60.20 31.06Q59.10 29.26 57.20 28.32Q55.30 27.39 53.00 27.39L53.00 27.39Q49.68 27.39 47.35 29.50Q45.02 31.62 44.69 35.36L44.69 35.36L61.31 35.36ZM87.40 50.88Q83.70 50.88 80.70 49.20Q77.69 47.52 75.99 44.42Q74.28 41.32 74.28 37.24L74.28 37.24Q74.28 33.20 76.04 30.10Q77.79 27.00 80.82 25.35Q83.84 23.69 87.59 23.69L87.59 23.69Q91.34 23.69 94.37 25.35Q97.39 27.00 99.15 30.08Q100.90 33.15 100.90 37.24L100.90 37.24Q100.90 41.32 99.10 44.42Q97.30 47.52 94.22 49.20Q91.15 50.88 87.40 50.88L87.40 50.88ZM87.40 47.04Q89.75 47.04 91.82 45.93Q93.89 44.83 95.16 42.62Q96.43 40.41 96.43 37.24L96.43 37.24Q96.43 34.07 95.18 31.86Q93.94 29.65 91.92 28.56Q89.90 27.48 87.54 27.48L87.54 27.48Q85.14 27.48 83.15 28.56Q81.15 29.65 79.95 31.86Q78.75 34.07 78.75 37.24L78.75 37.24Q78.75 40.46 79.93 42.67Q81.11 44.88 83.08 45.96Q85.05 47.04 87.40 47.04L87.40 47.04ZM133.38 26.76Q133.38 30.94 130.52 33.71Q127.67 36.47 121.80 36.47L121.80 36.47L115.36 36.47L115.36 50.45L110.99 50.45L110.99 16.96L121.80 16.96Q127.47 16.96 130.43 19.70Q133.38 22.44 133.38 26.76L133.38 26.76ZM121.80 32.87Q125.46 32.87 127.18 31.28Q128.91 29.69 128.91 26.76L128.91 26.76Q128.91 20.56 121.80 20.56L121.80 20.56L115.36 20.56L115.36 32.87L121.80 32.87ZM147.51 28.40Q148.66 26.14 150.80 24.89Q152.94 23.64 156.01 23.64L156.01 23.64L156.01 28.16L154.86 28.16Q147.51 28.16 147.51 36.13L147.51 36.13L147.51 50.45L143.14 50.45L143.14 24.12L147.51 24.12L147.51 28.40ZM176.87 50.88Q173.17 50.88 170.16 49.20Q167.16 47.52 165.46 44.42Q163.75 41.32 163.75 37.24L163.75 37.24Q163.75 33.20 165.50 30.10Q167.26 27.00 170.28 25.35Q173.31 23.69 177.06 23.69L177.06 23.69Q180.81 23.69 183.83 25.35Q186.86 27.00 188.62 30.08Q190.37 33.15 190.37 37.24L190.37 37.24Q190.37 41.32 188.57 44.42Q186.77 47.52 183.69 49.20Q180.61 50.88 176.87 50.88L176.87 50.88ZM176.87 47.04Q179.22 47.04 181.29 45.93Q183.35 44.83 184.63 42.62Q185.90 40.41 185.90 37.24L185.90 37.24Q185.90 34.07 184.65 31.86Q183.40 29.65 181.38 28.56Q179.37 27.48 177.01 27.48L177.01 27.48Q174.61 27.48 172.61 28.56Q170.62 29.65 169.42 31.86Q168.22 34.07 168.22 37.24L168.22 37.24Q168.22 40.46 169.40 42.67Q170.57 44.88 172.54 45.96Q174.51 47.04 176.87 47.04L176.87 47.04ZM211.17 24.12L211.17 27.72L205.65 27.72L205.65 50.45L201.28 50.45L201.28 27.72L197.86 27.72L197.86 24.12L201.28 24.12L201.28 22.25Q201.28 17.83 203.56 15.78Q205.84 13.74 210.89 13.74L210.89 13.74L210.89 17.39Q208.00 17.39 206.83 18.52Q205.65 19.65 205.65 22.25L205.65 22.25L205.65 24.12L211.17 24.12ZM222.85 19.84Q221.60 19.84 220.74 18.98Q219.87 18.11 219.87 16.87L219.87 16.87Q219.87 15.62 220.74 14.75Q221.60 13.89 222.85 13.89L222.85 13.89Q224.05 13.89 224.89 14.75Q225.73 15.62 225.73 16.87L225.73 16.87Q225.73 18.11 224.89 18.98Q224.05 19.84 222.85 19.84L222.85 19.84ZM220.59 24.12L224.96 24.12L224.96 50.45L220.59 50.45L220.59 24.12ZM236.74 14.90L241.11 14.90L241.11 50.45L236.74 50.45L236.74 14.90ZM276.90 36.28Q276.90 37.53 276.76 38.92L276.76 38.92L255.72 38.92Q255.96 42.81 258.38 45.00Q260.81 47.18 264.27 47.18L264.27 47.18Q267.10 47.18 269.00 45.86Q270.90 44.54 271.67 42.33L271.67 42.33L276.38 42.33Q275.32 46.13 272.15 48.51Q268.98 50.88 264.27 50.88L264.27 50.88Q260.52 50.88 257.56 49.20Q254.61 47.52 252.93 44.42Q251.25 41.32 251.25 37.24L251.25 37.24Q251.25 33.15 252.88 30.08Q254.51 27.00 257.47 25.35Q260.42 23.69 264.27 23.69L264.27 23.69Q268.02 23.69 270.90 25.32Q273.78 26.96 275.34 29.81Q276.90 32.67 276.90 36.28L276.90 36.28ZM272.39 35.36Q272.39 32.87 271.28 31.06Q270.18 29.26 268.28 28.32Q266.38 27.39 264.08 27.39L264.08 27.39Q260.76 27.39 258.43 29.50Q256.10 31.62 255.76 35.36L255.76 35.36L272.39 35.36Z" transform="translate(0, 0)"></path></g></svg></g></svg>